<svg width="18" height="18" viewBox="0 0 18 18" fill="none" xmlns="http://www.w3.org/2000/svg">
<path fill-rule="evenodd" clip-rule="evenodd" d="M1.7601 12.25L4.3001 11.96C4.9101 11.89 5.5101 12.1 5.9401 12.53L7.7801 14.37C10.6101 12.93 12.9301 10.62 14.3701 7.78L12.5201 5.93C12.0901 5.5 11.8801 4.9 11.9501 4.29L12.2401 1.77C12.3601 0.76 13.2101 0 14.2301 0H15.9601C17.0901 0 18.0301 0.94 17.9601 2.07C17.4301 10.61 10.6001 17.43 2.0701 17.96C0.940102 18.03 0.000102997 17.09 0.000102997 15.96V14.23C-0.009897 13.22 0.750101 12.37 1.7601 12.25Z" fill="white"/>
</svg>
