<svg width="8" height="11" viewBox="0 0 8 11" fill="none" xmlns="http://www.w3.org/2000/svg">
<path fill-rule="evenodd" clip-rule="evenodd" d="M6.5 0.499954L4 2.99995L1.5 0.499954C1.22386 0.223811 0.776142 0.223811 0.499999 0.499953C0.223857 0.776096 0.223857 1.22381 0.499999 1.49995L3.29289 4.29285C3.68342 4.68337 4.31658 4.68337 4.70711 4.29285L7.5 1.49995C7.77614 1.22381 7.77614 0.776096 7.5 0.499953C7.22386 0.223811 6.77614 0.223811 6.5 0.499954ZM6.5 6.49995L4 8.99995L1.5 6.49995C1.22386 6.22381 0.776142 6.22381 0.499999 6.49995C0.223857 6.7761 0.223857 7.22381 0.499999 7.49995L3.29289 10.2928C3.68342 10.6834 4.31658 10.6834 4.70711 10.2928L7.5 7.49995C7.77614 7.22381 7.77614 6.7761 7.5 6.49995C7.22386 6.22381 6.77614 6.22381 6.5 6.49995Z" fill="#41F6D7"/>
</svg>
